<?xml version="1.0" standalone="no"?>
<!DOCTYPE svg PUBLIC "-//W3C//DTD SVG 20010904//EN"
 "http://www.w3.org/TR/2001/REC-SVG-20010904/DTD/svg10.dtd">
<svg version="1.0" xmlns="http://www.w3.org/2000/svg"
 width="100.000000pt" height="42.000000pt" viewBox="0 0 100.000000 42.000000"
 preserveAspectRatio="xMidYMid meet">

<g transform="translate(0.000000,42.000000) scale(0.100000,-0.100000)"
fill="#000000" stroke="none">
<path d="M12 408 c-9 -9 -12 -69 -12 -210 l0 -198 488 0 c366 0 491 3 500 12
9 9 12 69 12 210 l0 198 -488 0 c-366 0 -491 -3 -500 -12z m477 -198 l0 -200
-239 0 -240 0 0 188 c0 133 4 192 12 200 9 9 76 12 240 12 l227 0 0 -200z
m209 66 l57 -55 57 55 c43 41 64 54 87 54 l31 0 0 -104 c0 -111 -3 -119 -53
-131 l-27 -7 0 73 -1 74 -44 -47 c-24 -27 -46 -48 -49 -48 -3 0 -25 21 -50 48
l-46 47 0 -56 c0 -60 -8 -73 -53 -84 l-27 -7 0 121 0 121 31 0 c24 0 44 -12
87 -54z m-139 -39 c0 -9 -2 -8 -6 1 -2 6 -10 9 -15 6 -7 -4 -8 -2 -4 5 9 13
26 5 25 -12z m-32 -29 c-3 -8 -6 -5 -6 6 -1 11 2 17 5 13 3 -3 4 -12 1 -19z
m33 -24 c0 -8 -19 -13 -24 -6 -3 5 1 9 9 9 8 0 15 -2 15 -3z"/>
<path d="M102 314 c-20 -14 -22 -23 -22 -120 0 -101 1 -105 20 -100 65 19 60
11 60 102 l0 84 85 0 c78 0 85 -2 85 -20 0 -18 -7 -20 -60 -20 -33 0 -60 -3
-60 -6 0 -4 25 -38 56 -75 56 -69 57 -69 106 -69 l50 0 -36 44 c-41 51 -43 56
-18 56 29 0 42 21 42 70 0 40 -4 48 -25 58 -41 19 -255 16 -283 -4z"/>
<path d="M461 214 c0 -11 3 -14 6 -6 3 7 2 16 -1 19 -3 4 -6 -2 -5 -13z"/>
</g>
</svg>
