<?xml version="1.0" encoding="UTF-8"?>
<svg id="_Слой_1" data-name="Слой_1" xmlns="http://www.w3.org/2000/svg" version="1.1" viewBox="0 0 774 774">
  <!-- Generator: Adobe Illustrator 29.0.0, SVG Export Plug-In . SVG Version: 2.1.0 Build 186)  -->
  <defs>
    <style>
      .st0 {
        fill: #fff;
      }
    </style>
  </defs>
  <rect class="st0" x="0" y="0" width="774" height="774" rx="387" ry="387"/>
  <g>
    <path d="M322.8,388.2c0-34.3,27.9-62.2,62.2-62.2s.3,0,.5,0V0S385.5,0,385.4,0h0C172.6,0,0,172.6,0,385.4v2.5C0,600.9,172.6,773.4,385.4,773.4h0s0,0,0,0v-323c-.2,0-.3,0-.5,0-34.3,0-62.2-27.9-62.2-62.2ZM245.3,661.8c-3.6,5.7-9.8,8.8-16.1,8.8s-7.1-1-10.2-3c-46.4-29.6-85.2-70.6-112.1-118.5-27.8-49.5-42.4-105.8-42.4-162.9,0-113.3,56.8-217.9,151.9-279.7,8.8-5.8,20.7-3.2,26.4,5.6s3.2,20.7-5.6,26.4c-84.2,54.8-134.5,147.4-134.5,247.7s51.2,194.6,136.8,249.2c8.9,5.7,11.5,17.5,5.8,26.4ZM281.6,567.9c-3.7,5.7-9.8,8.8-16.1,8.8s-7.1-1-10.3-3c-64-41.3-102.3-111.3-102.3-187.4s37.6-144.9,100.5-186.2c9-5.9,21.3-3.2,26.9,6.1s2.3,20.4-6.3,26.1c-51.9,34.3-82.9,91.9-82.9,154s31.7,121.1,84.8,155.3c8.9,5.7,11.4,17.5,5.7,26.4ZM322.5,488c-3.6,5.8-9.9,9-16.2,9s-7.3-1-10.5-3.2c-36.2-24-57.9-64.2-57.9-107.6s21.3-82.9,56.9-106.9c9-6.1,21.3-3.5,27,5.9,5.3,8.8,2.4,20.2-6.1,26-24.8,17-39.6,44.9-39.6,75s15.1,58.5,40.3,75.4c8.7,5.8,11.6,17.5,6.1,26.3Z"/>
    <path d="M361,388.2c0,13.4,11,24.3,24.5,24h0v-47.9h0c-13.4-.3-24.5,10.6-24.5,23.9Z"/>
    <path d="M447.2,388.2c0-34.1-27.6-61.9-61.6-62.2s0,0,0,0v38.1s0,0,0,0c13,.3,23.4,10.9,23.4,24s-10.5,23.7-23.4,24c0,0,0,0,0,0v38.1s0,0,0,0c34-.3,61.6-28.1,61.6-62.2Z"/>
    <path d="M617,387.8c0-76.1-38.2-146.1-102.3-187.4-8.9-5.7-20.7-3.2-26.4,5.7-5.7,8.9-3.2,20.7,5.7,26.4,53.1,34.2,84.8,92.2,84.8,155.3s-31,119.7-82.9,154c-8.8,5.8-11.7,17.6-6.1,26.5,3.6,5.8,9.8,8.9,16.2,8.9s7.2-1,10.5-3.1c63-41.4,100.5-111,100.5-186.2Z"/>
    <path d="M532,387.8c0-43.4-21.6-83.6-57.9-107.6-8.8-5.8-20.6-3.4-26.5,5.4-5.8,8.8-3.4,20.6,5.4,26.5,25.5,16.9,40.7,45.2,40.7,75.7s-14.8,58-39.6,75c-8.6,5.9-11.5,17.5-5.9,26.3,3.7,5.8,9.8,8.9,16.2,8.9s7.4-1.1,10.7-3.3c35.6-24,56.9-64,56.9-106.9Z"/>
    <path d="M663.1,224.9c-26.9-48-65.7-88.9-112.1-118.5-8.9-5.7-20.7-3.1-26.4,5.8-5.7,8.9-3.1,20.7,5.8,26.4,85.7,54.6,136.8,147.7,136.8,249.2s-50.3,192.9-134.5,247.7c-8.8,5.8-11.4,17.6-5.6,26.4,3.7,5.6,9.8,8.7,16,8.7s7.2-1,10.4-3.1c95.1-61.9,151.9-166.4,151.9-279.7s-14.7-113.4-42.4-162.9Z"/>
  </g>
</svg>