<?xml version="1.0" encoding="UTF-8"?>
<svg id="_Слой_1" xmlns="http://www.w3.org/2000/svg" version="1.1" viewBox="0 0 1742.1 450.4">
  <!-- Generator: Adobe Illustrator 29.0.0, SVG Export Plug-In . SVG Version: 2.1.0 Build 186)  -->
  <defs>
    <style>
      .st0 {
        fill: #fff;
      }

      .st1 {
        fill: #1d1d1b;
      }
    </style>
  </defs>
  <g>
    <g>
      <path class="st0" d="M1.6,422.3v-91.8c0-84.2,0-171.3-.2-256.9,0-19.5,12.5-41.2,36.5-45.2,1.1-.2,2.4-.2,3.5-.2h824v350.7c0,23.5-18.7,43.3-40.9,43.3H1.5h.1Z"/>
      <path class="st0" d="M864,29.6v349.4c0,10.8-4.3,21.5-11.8,29.5-7.6,8-17.4,12.4-27.7,12.4H2.8v-90.4c0-84.2,0-171.3-.2-256.9,0-9.7,3.2-19.7,8.8-27.5,6.4-8.9,15.6-14.5,26.5-16.3,1-.2,2.2-.2,3.3-.2h822.7M866.9,26.8H41.5c-1.3,0-2.5,0-3.8.2C12.4,31.2,0,53.9,0,73.6c.3,115.1.1,230.2.1,345.3v4.7h824.4c22.8,0,42.3-20.6,42.3-44.7V26.7h.1Z"/>
    </g>
    <path class="st1" d="M.1,423.7v-4.7c0-115.2.2-230.3-.1-345.4C0,53.9,12.4,31.2,37.6,27c1.5-.3,3.1-.2,4.7-.2h824.5v352.2c0,24.1-19.5,44.7-42.3,44.7H.1ZM428.4,238.8c-9-2.5-13.6-7.9-13.8-15.6-.2-7.7,4.3-13,13.7-16.2V43.5H44.7c-16.9,0-28.7,12.3-28.7,30.1v329.7c0,1.1.1,2.2.2,3.3h412.2v-167.9h0ZM800.5,118.3c-14.2.4-27.9-1-41.4,2.3-16.4,4.1-30.7,11.3-42.3,25-19.8,23.4-40.7,45.8-61.1,68.7-1,1.1-1.7,2.4-2.6,3.7-1.5-1.6-2.3-2.5-3.1-3.4-22-24.4-43.9-48.9-66.2-73-4.8-5.2-10.6-9.7-16.7-13-10.2-5.5-21.2-9.2-32.7-9.8-9.9-.5-19.9,0-29.8,0v213.2c14.6.5,28.7-.7,42-6.8,16.4-7.5,25.5-20.1,25.2-39.9-.4-26.5,0-52.9,0-79.4v-5.1c27.5,32.4,54.3,63.9,81.2,95.6,26.7-31.7,53.1-63.2,79.6-94.7.3.1.6.3.9.4v130.3c6.9-.4,13.2-.4,19.6-1.2,12.7-1.5,24.8-5,34.9-14,8.4-7.6,12.9-17,12.8-29V118.2h0l-.2.2h-.1ZM487.6,223c0-10.1-1.8-19.8-6.5-28.6-2.8-5.4-6.6-10.2-10.2-15.1-.6-.8-2.4-.5-3.7-.7,0,1.4,0,2.7.2,4,.2.8,1.1,1.3,1.6,2,13.2,16.6,16.8,35.3,11,56-2.4,8.4-6.7,15.7-12.3,22.2-1.9,2.2-1.6,4.9.6,4.9s2.6-1.1,3.5-2.1c10.5-12,15.7-26.3,15.8-42.6h0ZM473.1,225.1c0-14-4.2-25.7-11.6-34-1.2-1.4-2.6-3.2-4.5-1.4s-.4,3.3.8,4.8c14,17,13.9,39.8,0,57-.8,1-1.4,3.6-.8,4.4,1.6,2.2,3.1.4,4.4-1,7.9-9,11.6-19.7,11.8-29.8h0ZM458.4,223.1c0-8.1-2.4-15.3-7.7-21.1-.8-.9-2.8-.8-4.2-1.2.2,1.5,0,3.5.7,4.6,8.4,11.3,8.4,23.9,0,35.3-.8,1-.4,3-.6,4.5,1.4-.4,3.3-.3,4.2-1.3,5.2-5.8,7.5-12.8,7.7-20.8h-.1ZM430,212.3c1.1.4,2.1.6,2.9,1.1,3.8,1.9,5.9,5.1,5.9,9.6s-2,8.1-6,9.5c-3.5,1.2-3.3,3.2-2.7,5.9,8.5-.7,14.2-7.9,13.5-16.9-.6-7.7-7-14.1-13.7-13.5v4.4h.1ZM428.4,233.2v-20.3c-5.3.3-8.9,4.3-9.1,9.8s3.4,9.8,9.1,10.5h0Z"/>
    <path class="st1" d="M179.6,203.1h109.6v-39.4h-143.2v118.8c0,1.9,0,3.8-.2,5.7-2,23.8-12.3,37.5-39.7,41.5-10,1.5-20.1,1.5-30.8,2.3v-148.6c0-8.4-.2-16.8.7-25.1,2.4-20.8,12-32.1,31.4-36.5,8.8-2,17.9-3.1,26.8-3.1,54.9-.3,109.8-.2,164.6,0,13.2,0,26.1,2.2,38.2,8.3,15.1,7.6,23.2,20,22.9,38.1-.2,12.8,0,25.7,0,38.5s-6.5,27-19.1,34.7c-10.4,6.3-21.9,8.9-33.7,10.1-2.4.3-4.8.4-8,.7,22.7,28.1,44.9,55.7,67.6,84h-82.9c-1.6,0-3.8-1-4.8-2.3-32.8-41.8-65.5-83.7-98.1-125.6-.3-.4-.5-.8-1.1-1.8h0l-.2-.2h0Z"/>
    <path class="st1" d="M370.7,222.8c.4-16.1,5.3-30.4,15.7-42.3,1.2-1.4,2.4-3.9,4.6-1.6,1.9,1.9,0,3.4-1.2,4.8-19.3,22.7-19.3,55.9,0,78.5.6.7,1.4,1.3,1.6,2,.2,1,0,2.4-.5,2.9s-2.1.4-2.7,0c-1.3-1-2.4-2.5-3.5-3.8-9.2-11.7-13.5-25.3-13.8-40.4h-.2Z"/>
    <path class="st1" d="M400.5,188.3c.5,1.8,1.2,3.1,1.1,4.4,0,.8-1.1,1.6-1.7,2.3-13.2,16-13.3,39.4-.2,55.5.5.6,1.2,1.1,1.4,1.7.3,1.2.2,2.5.3,3.7-1.3-.2-3,0-3.7-.7-16.6-18.6-16.1-47,0-64.8.5-.6,1.3-1,2.8-2.2h0Z"/>
    <path class="st1" d="M410.2,199.8c.9.8,1.9,1.2,2,1.8.1,1-.2,2.2-.7,3.1-1.9,3.7-4.7,7.2-5.8,11.2-2.5,8.8-.7,17.1,5,24.2,0,0,.2.2.2.3,1.1,1.4,2.6,2.8.8,4.5-1.8,1.8-3.1.1-4.2-1.2-7-8.8-9.4-18.8-6-29.8,1.3-4.2,4-8,6.2-11.9.5-.9,1.6-1.4,2.5-2.2h0Z"/>
  </g>
  <g>
    <path d="M1030.2,252v27.8c0,16.9-4.1,30-12.4,39-8.3,9.1-20.5,13.6-36.6,13.6s-28.4-4.5-36.6-13.6c-8.3-9.1-12.4-22.1-12.4-39v-108.8c0-16.9,4.1-29.9,12.4-39,8.3-9.1,20.5-13.6,36.6-13.6s28.4,4.5,36.6,13.6c8.3,9.1,12.4,22.1,12.4,39v20.3h-8.7c-12.4,0-22.4-10-22.4-22.4h0c0-7.6-1.5-12.9-4.6-16s-7.2-4.6-12.4-4.6-9.3,1.5-12.4,4.6c-3.1,3.1-4.6,8.4-4.6,16v113c0,7.6,1.5,12.9,4.6,15.8,3.1,3,7.2,4.5,12.4,4.5s9.3-1.5,12.4-4.5c3.1-3,4.6-8.3,4.6-15.8v-7.5c0-12.4,10-22.4,22.4-22.4h8.7Z"/>
    <path d="M1047.6,170.9c0-16.9,4.3-29.9,12.9-39,8.6-9.1,20.9-13.6,37.1-13.6s28.5,4.5,37.1,13.6c8.6,9.1,12.9,22.1,12.9,39v108.8c0,16.9-4.3,30-12.9,39-8.6,9.1-20.9,13.6-37.1,13.6s-28.5-4.5-37.1-13.6-12.9-22.1-12.9-39v-108.8h0ZM1080.5,281.9c0,7.6,1.5,12.9,4.6,16s7.2,4.6,12.4,4.6,9.3-1.5,12.4-4.6,4.6-8.4,4.6-16v-113c0-7.6-1.5-12.9-4.6-16s-7.2-4.6-12.4-4.6-9.3,1.5-12.4,4.6-4.6,8.4-4.6,16v113Z"/>
    <path d="M1198,178.4v151.6h-29.6V120.7h18.4c13.5,0,25.3,9.1,28.9,22.1l27.8,103.2v-125.3h29.3v209.3h-10.9c-13.5,0-25.3-9.1-28.9-22.1l-35-129.5h0Z"/>
    <path d="M1325.6,178.4v151.6h-29.6V120.7h18.4c13.5,0,25.3,9.1,28.9,22.1l27.8,103.2v-125.3h29.3v209.3h-10.9c-13.5,0-25.3-9.1-28.9-22.1l-35-129.5h0Z"/>
    <path d="M1456.9,208.9h45.1v29.9h-45.1v61.3h26.9c16.5,0,29.9,13.4,29.9,29.9h0s-89.7,0-89.7,0V120.7h89.7c0,16.5-13.4,29.9-29.9,29.9h-26.9v58.3Z"/>
    <path d="M1629.4,252v27.8c0,16.9-4.1,30-12.4,39-8.3,9.1-20.5,13.6-36.6,13.6s-28.4-4.5-36.6-13.6c-8.3-9.1-12.4-22.1-12.4-39v-108.8c0-16.9,4.1-29.9,12.4-39,8.3-9.1,20.5-13.6,36.6-13.6s28.4,4.5,36.6,13.6c8.3,9.1,12.4,22.1,12.4,39v20.3h-8.7c-12.4,0-22.4-10-22.4-22.4h0c0-7.6-1.5-12.9-4.6-16s-7.2-4.6-12.4-4.6-9.3,1.5-12.4,4.6-4.6,8.4-4.6,16v113c0,7.6,1.5,12.9,4.6,15.8,3.1,3,7.2,4.5,12.4,4.5s9.3-1.5,12.4-4.5,4.6-8.3,4.6-15.8v-7.5c0-12.4,10-22.4,22.4-22.4h8.7Z"/>
    <path d="M1640.5,120.7h101.7c0,16.5-13.4,29.9-29.9,29.9h-4.5v179.4h-32.9v-179.4h-4.5c-16.5,0-29.9-13.4-29.9-29.9h0s0,0,0,0Z"/>
  </g>
</svg>